<svg xmlns="http://www.w3.org/2000/svg" width="512" height="512" viewBox="0 0 512 512">
  <defs>
    <linearGradient id="ink" x1="0" y1="0" x2="1" y2="1">
      <stop offset="0" stop-color="#7a1414"/>
      <stop offset="1" stop-color="#b23a3a"/>
    </linearGradient>
  </defs>
  <!-- fond plein (icône maskable) -->
  <rect width="512" height="512" fill="#f7f2ea"/>
  <!-- arbre centré dans la zone de sécurité -->
  <g transform="translate(256,300) scale(2.05)" fill="none" stroke="url(#ink)" stroke-linecap="round">
    <!-- tronc -->
    <path d="M0 60 C-3 20 3 -10 6 -46" stroke-width="9"/>
    <!-- racines -->
    <path d="M0 60 C-26 70 -50 72 -70 82 M0 60 C26 70 52 72 72 82 M0 60 C-6 76 -9 90 -12 104 M0 60 C7 76 11 90 15 104" stroke-width="4.5"/>
    <!-- branches -->
    <path d="M4 -20 C-20 -30 -44 -34 -64 -48 M-38 -36 C-48 -46 -54 -56 -64 -64 M-52 -46 C-62 -48 -72 -50 -82 -48" stroke-width="4"/>
    <path d="M5 -24 C28 -34 52 -38 72 -52 M50 -42 C60 -52 66 -62 76 -70 M64 -52 C74 -54 84 -56 92 -54" stroke-width="4"/>
    <path d="M6 -46 C-8 -60 -18 -74 -22 -92 M6 -46 C20 -60 32 -72 44 -90 M6 -50 C4 -66 2 -80 2 -96" stroke-width="3.3"/>
  </g>
  <!-- éclaboussures -->
  <g fill="#b23a3a" opacity="0.85">
    <circle cx="120" cy="150" r="6"/><circle cx="150" cy="120" r="4.5"/><circle cx="256" cy="96" r="7"/>
    <circle cx="360" cy="120" r="6"/><circle cx="392" cy="150" r="4.5"/><circle cx="200" cy="110" r="4"/>
    <circle cx="312" cy="110" r="4"/>
  </g>
  <text x="256" y="470" text-anchor="middle" font-family="Georgia, serif" font-style="italic" font-weight="700" font-size="46" fill="#7a1414">Jardin Sauvage</text>
</svg>
